<?xml version="1.0" encoding="utf-8"?>
<!-- Generator: Adobe Illustrator 16.0.0, SVG Export Plug-In . SVG Version: 6.00 Build 0)  -->
<!DOCTYPE svg PUBLIC "-//W3C//DTD SVG 1.1//EN" "http://www.w3.org/Graphics/SVG/1.1/DTD/svg11.dtd">
<svg version="1.1" id="Layer_1" xmlns="http://www.w3.org/2000/svg" xmlns:xlink="http://www.w3.org/1999/xlink" x="0px" y="0px"
	 width="440.358px" height="20.793px" viewBox="0 0 440.358 20.793" enable-background="new 0 0 440.358 20.793"
	 xml:space="preserve">
<g>
	<path fill="#FFFFFF" d="M9.807,2.313H6.209v18.48H3.598V2.313H0V0h9.807V2.313z"/>
	<path fill="#FFFFFF" d="M22.981,20.793h-2.597V9.239c0-0.622-0.228-1.163-0.683-1.623c-0.456-0.46-0.999-0.689-1.631-0.689
		c-0.622,0-1.163,0.229-1.624,0.689c-0.46,0.46-0.689,1.001-0.689,1.623v11.554h-2.583V0h2.583v6.927
		c0.181-1.543,1.271-2.313,3.274-2.313c1.568,0,2.704,0.708,3.408,2.124c0.36,0.73,0.541,1.564,0.541,2.502V20.793z"/>
	<path fill="#FFFFFF" d="M36.562,16.18c-0.188,1.65-0.689,2.832-1.502,3.543c-0.812,0.713-2.038,1.07-3.679,1.07
		c-0.857,0-1.655-0.227-2.396-0.678c-0.738-0.449-1.308-1.055-1.703-1.812c-0.353-0.666-0.528-1.375-0.528-2.123V9.239
		c0-1.451,0.514-2.602,1.542-3.449c0.956-0.784,2.173-1.177,3.652-1.177c0.855,0,1.651,0.226,2.387,0.677
		c0.734,0.45,1.301,1.06,1.698,1.826c0.352,0.667,0.527,1.375,0.527,2.123v4.613H29.34v2.326c0,0.723,0.261,1.295,0.785,1.719
		c0.478,0.389,1.086,0.582,1.826,0.582c1.532,0,2.299-0.768,2.299-2.301h2.312V16.18z M33.979,11.539v-2.3
		c0-0.631-0.228-1.174-0.683-1.63c-0.456-0.455-0.999-0.683-1.63-0.683c-0.642,0-1.188,0.228-1.645,0.683
		c-0.456,0.456-0.683,0.999-0.683,1.63v2.3H33.979z"/>
	<path fill="#FFFFFF" d="M57.341,20.793h-2.584v-9.24h-4.626v9.24h-2.584V4.603c0-1.381,0.469-2.499,1.407-3.356
		C49.854,0.416,51.005,0,52.402,0c2.065,0,3.531,0.795,4.396,2.383c0.36,0.659,0.541,1.398,0.541,2.22L57.341,20.793L57.341,20.793z
		 M54.757,9.239V4.595c0-0.67-0.219-1.217-0.656-1.643c-0.438-0.426-0.99-0.639-1.657-0.639s-1.22,0.213-1.656,0.639
		c-0.438,0.426-0.656,0.973-0.656,1.643V9.24L54.757,9.239L54.757,9.239z"/>
	<path fill="#FFFFFF" d="M71.206,16.18c-0.189,1.65-0.69,2.832-1.502,3.543c-0.812,0.713-2.038,1.07-3.68,1.07
		c-0.856,0-1.654-0.227-2.395-0.678c-0.739-0.449-1.309-1.055-1.704-1.812c-0.352-0.666-0.528-1.375-0.528-2.123V9.239
		c0-1.451,0.515-2.602,1.542-3.449c0.956-0.784,2.173-1.177,3.652-1.177c0.856,0,1.653,0.226,2.387,0.677
		c0.735,0.45,1.301,1.06,1.698,1.826c0.352,0.667,0.527,1.375,0.527,2.123v4.613h-7.225v2.326c0,0.723,0.262,1.295,0.785,1.719
		c0.479,0.389,1.086,0.582,1.826,0.582c1.533,0,2.299-0.768,2.299-2.301h2.316V16.18z M68.622,11.539v-2.3
		c0-0.631-0.229-1.174-0.684-1.63c-0.456-0.455-0.999-0.683-1.63-0.683c-0.641,0-1.188,0.228-1.644,0.683
		c-0.456,0.456-0.684,0.999-0.684,1.63v2.3H68.622z"/>
	<path fill="#FFFFFF" d="M84.65,16.152c0,1.369-0.472,2.486-1.414,3.348c-0.941,0.861-2.106,1.293-3.495,1.293
		c-3.076,0-4.613-1.539-4.613-4.613h2.312c0.181,1.533,0.901,2.299,2.164,2.299c1.65,0,2.477-0.643,2.477-1.932
		c0-0.516-0.442-1.045-1.326-1.596c-0.92-0.514-1.839-1.031-2.759-1.555c-1.138-0.684-1.917-1.387-2.342-2.107
		c-0.352-0.612-0.526-1.288-0.526-2.027c0-1.369,0.478-2.495,1.434-3.378c0.93-0.847,2.084-1.271,3.463-1.271
		c2.896,0,4.438,1.542,4.627,4.626h-2.3c-0.198-1.542-0.929-2.312-2.19-2.312c-1.643,0-2.462,0.64-2.462,1.921
		c0,0.514,0.44,1.046,1.324,1.596c0.92,0.515,1.84,1.029,2.761,1.542c1.137,0.693,1.916,1.406,2.341,2.139
		C84.476,14.729,84.65,15.402,84.65,16.152z"/>
	<path fill="#FFFFFF" d="M95.703,20.793h-0.284c-1.264,0-2.348-0.453-3.254-1.359s-1.359-1.992-1.359-3.254V6.927h-2.326V4.613
		h2.326V0h2.584v4.613h2.313v2.313H93.39v9.251c0,0.633,0.227,1.168,0.677,1.611c0.45,0.439,0.996,0.672,1.638,0.688L95.703,20.793
		L95.703,20.793z"/>
	<path fill="#FFFFFF" d="M109.163,20.793h-2.599V9.239c0-0.622-0.228-1.163-0.684-1.623c-0.455-0.46-0.998-0.689-1.63-0.689
		c-0.622,0-1.163,0.229-1.623,0.689c-0.46,0.46-0.689,1.001-0.689,1.623v11.554h-2.584V0h2.584v6.927
		c0.181-1.543,1.271-2.313,3.273-2.313c1.568,0,2.705,0.708,3.408,2.124c0.36,0.73,0.542,1.564,0.542,2.502L109.163,20.793
		L109.163,20.793z"/>
	<path fill="#FFFFFF" d="M122.744,16.18c-0.189,1.65-0.69,2.832-1.502,3.543c-0.812,0.713-2.038,1.07-3.68,1.07
		c-0.856,0-1.654-0.227-2.395-0.678c-0.74-0.449-1.309-1.055-1.705-1.812c-0.353-0.666-0.527-1.375-0.527-2.123V9.239
		c0-1.451,0.516-2.602,1.542-3.449c0.956-0.784,2.174-1.177,3.652-1.177c0.856,0,1.652,0.226,2.388,0.677
		c0.735,0.45,1.301,1.06,1.698,1.826c0.352,0.667,0.527,1.375,0.527,2.123v4.613h-7.225v2.326c0,0.723,0.262,1.295,0.784,1.719
		c0.479,0.389,1.087,0.582,1.826,0.582c1.533,0,2.3-0.768,2.3-2.301h2.315V16.18z M120.16,11.539v-2.3
		c0-0.631-0.229-1.174-0.684-1.63c-0.456-0.455-0.999-0.683-1.631-0.683c-0.64,0-1.188,0.228-1.644,0.683
		c-0.455,0.456-0.684,0.999-0.684,1.63v2.3H120.16z"/>
	<path fill="#FFFFFF" d="M133.728,20.793h-0.284c-1.263,0-2.347-0.453-3.254-1.359c-0.905-0.906-1.358-1.992-1.358-3.254V6.927
		h-2.326V4.613h2.326V0h2.584v4.613h2.312v2.313h-2.312v9.251c0,0.633,0.226,1.168,0.677,1.611c0.45,0.439,0.996,0.672,1.637,0.688
		L133.728,20.793L133.728,20.793z"/>
	<path fill="#FFFFFF" d="M140.166,2.313h-2.583V0h2.583V2.313z M140.166,20.793h-2.583V4.613h2.583V20.793z"/>
	<path fill="#FFFFFF" d="M153.721,16.18c-0.188,3.074-1.826,4.613-4.91,4.613c-0.812,0-1.38-0.068-1.705-0.203
		c-0.784-0.316-1.487-0.924-2.109-1.826c-0.532-0.785-0.799-1.646-0.799-2.584V9.239c0-1.361,0.479-2.479,1.435-3.354
		c0.938-0.848,2.093-1.271,3.463-1.271c2.913,0,4.455,1.542,4.627,4.626h-2.312c-0.172-1.542-0.942-2.312-2.313-2.312
		c-0.622,0-1.163,0.229-1.623,0.689c-0.46,0.46-0.688,1.001-0.688,1.623v6.94c0,0.82,0.278,1.447,0.839,1.881
		c0.352,0.279,0.843,0.418,1.474,0.418c1.371,0,2.143-0.766,2.313-2.299H153.721z"/>
	<path fill="#FFFFFF" d="M166.869,16.152c0,1.369-0.473,2.486-1.414,3.348c-0.942,0.861-2.107,1.293-3.496,1.293
		c-3.076,0-4.613-1.539-4.613-4.613h2.313c0.18,1.533,0.9,2.299,2.163,2.299c1.65,0,2.477-0.643,2.477-1.932
		c0-0.516-0.442-1.045-1.326-1.596c-0.92-0.514-1.839-1.031-2.759-1.555c-1.137-0.684-1.917-1.387-2.341-2.107
		c-0.353-0.612-0.527-1.288-0.527-2.027c0-1.369,0.479-2.495,1.434-3.378c0.93-0.847,2.084-1.271,3.464-1.271
		c2.896,0,4.438,1.542,4.627,4.626h-2.301c-0.197-1.542-0.929-2.312-2.19-2.312c-1.643,0-2.462,0.64-2.462,1.921
		c0,0.514,0.44,1.046,1.325,1.596c0.92,0.515,1.84,1.029,2.76,1.542c1.137,0.693,1.916,1.406,2.341,2.139
		C166.692,14.729,166.869,15.402,166.869,16.152z"/>
	<path fill="#FFFFFF" d="M187.632,16.18c0,1.443-0.515,2.588-1.542,3.438c-0.956,0.783-2.169,1.176-3.639,1.176
		c-0.866,0-1.667-0.227-2.401-0.676c-0.735-0.451-1.301-1.057-1.698-1.812c-0.352-0.668-0.526-1.375-0.526-2.125V9.239
		c0-1.451,0.515-2.602,1.542-3.449c0.955-0.784,2.174-1.177,3.651-1.177c0.857,0,1.652,0.226,2.389,0.677
		c0.734,0.45,1.301,1.06,1.697,1.826c0.353,0.667,0.527,1.375,0.527,2.123V16.18L187.632,16.18z M185.048,16.18V9.239
		c0-0.631-0.229-1.174-0.683-1.63c-0.456-0.455-0.999-0.683-1.632-0.683c-0.64,0-1.188,0.228-1.644,0.683
		c-0.455,0.456-0.683,0.999-0.683,1.63v6.939c0,0.633,0.228,1.174,0.683,1.623c0.456,0.451,1.004,0.678,1.644,0.678
		c0.633,0,1.176-0.227,1.632-0.678C184.819,17.352,185.048,16.811,185.048,16.18z"/>
	<path fill="#FFFFFF" d="M199.008,2.368h-0.879c-0.73,0.018-1.24,0.246-1.528,0.686c-0.117,0.17-0.176,0.69-0.176,1.56h2.312v2.313
		h-2.312v13.866h-2.584V6.927h-2.313V4.613h2.313c0-0.521,0-0.813,0-0.877c0.072-1.105,0.415-1.969,1.028-2.59
		c0.343-0.351,0.819-0.638,1.434-0.863C196.808,0.095,197.23,0,197.574,0h1.434V2.368L199.008,2.368z"/>
	<path fill="#FFFFFF" d="M219.583,16.182c0,1.443-0.511,2.588-1.529,3.436c-0.955,0.783-2.173,1.176-3.652,1.176
		c-0.855,0-1.651-0.227-2.387-0.676c-0.735-0.451-1.302-1.055-1.698-1.812c-0.352-0.666-0.526-1.375-0.526-2.123V0h2.584v16.182
		c0,0.621,0.228,1.16,0.683,1.615s0.999,0.682,1.63,0.682c0.632,0,1.175-0.227,1.631-0.682c0.455-0.455,0.684-0.994,0.684-1.615V0
		h2.584v16.182H219.583z"/>
	<path fill="#FFFFFF" d="M233.421,16.152c0,1.369-0.472,2.486-1.414,3.348s-2.107,1.293-3.496,1.293
		c-3.076,0-4.613-1.539-4.613-4.613h2.313c0.18,1.533,0.9,2.299,2.164,2.299c1.649,0,2.476-0.643,2.476-1.932
		c0-0.516-0.441-1.045-1.326-1.596c-0.92-0.514-1.839-1.031-2.759-1.555c-1.137-0.684-1.917-1.387-2.341-2.107
		c-0.353-0.612-0.527-1.288-0.527-2.027c0-1.369,0.479-2.495,1.435-3.378c0.929-0.847,2.084-1.271,3.463-1.271
		c2.896,0,4.438,1.542,4.627,4.626h-2.3c-0.198-1.542-0.93-2.312-2.191-2.312c-1.642,0-2.462,0.64-2.462,1.921
		c0,0.514,0.441,1.046,1.325,1.596c0.92,0.515,1.84,1.029,2.76,1.542c1.137,0.693,1.916,1.406,2.341,2.139
		C233.245,14.729,233.421,15.402,233.421,16.152z"/>
	<path fill="#FFFFFF" d="M247.205,16.18c-0.189,1.65-0.69,2.832-1.502,3.543c-0.812,0.713-2.038,1.07-3.68,1.07
		c-0.856,0-1.654-0.227-2.395-0.678c-0.74-0.449-1.309-1.055-1.705-1.812c-0.353-0.666-0.527-1.375-0.527-2.123V9.239
		c0-1.451,0.516-2.602,1.542-3.449c0.956-0.784,2.174-1.177,3.652-1.177c0.856,0,1.652,0.226,2.388,0.677
		c0.735,0.45,1.301,1.06,1.698,1.826c0.352,0.667,0.527,1.375,0.527,2.123v4.613h-7.225v2.326c0,0.723,0.263,1.295,0.784,1.719
		c0.479,0.389,1.087,0.582,1.826,0.582c1.533,0,2.3-0.768,2.3-2.301h2.315V16.18z M244.621,11.539v-2.3
		c0-0.631-0.229-1.174-0.684-1.63c-0.456-0.455-0.999-0.683-1.631-0.683c-0.64,0-1.188,0.228-1.644,0.683
		c-0.455,0.456-0.684,0.999-0.684,1.63v2.3H244.621z"/>
	<path fill="#FFFFFF" d="M273.801,13.854h-11.552v-2.312h11.552V13.854z"/>
	<path fill="#FFFFFF" d="M287.869,16.182c0,1.443-0.511,2.588-1.529,3.436c-0.955,0.783-2.173,1.176-3.652,1.176
		c-0.855,0-1.651-0.227-2.387-0.676c-0.735-0.451-1.302-1.055-1.698-1.812c-0.352-0.666-0.526-1.375-0.526-2.123V0h2.584v16.182
		c0,0.621,0.228,1.16,0.683,1.615s0.999,0.682,1.63,0.682c0.632,0,1.175-0.227,1.631-0.682c0.455-0.455,0.684-0.994,0.684-1.615V0
		h2.584v16.182H287.869z"/>
	<path fill="#FFFFFF" d="M302.087,20.793h-2.599V9.239c0-0.622-0.228-1.163-0.683-1.623c-0.456-0.46-0.999-0.689-1.631-0.689
		c-0.622,0-1.163,0.229-1.623,0.689c-0.46,0.46-0.689,1.001-0.689,1.623v11.554h-2.584V4.613h2.584v2.313
		c0.181-1.543,1.271-2.313,3.273-2.313c1.569,0,2.7,0.708,3.396,2.124c0.368,0.73,0.555,1.564,0.555,2.502V20.793z"/>
	<path fill="#FFFFFF" d="M313.395,2.368h-0.879c-0.729,0.018-1.24,0.246-1.528,0.686c-0.116,0.17-0.176,0.69-0.176,1.56h2.312v2.313
		h-2.312v13.866h-2.584V6.927h-2.312V4.613h2.312c0-0.521,0-0.813,0-0.877c0.072-1.105,0.415-1.969,1.028-2.59
		c0.343-0.351,0.82-0.638,1.434-0.863C311.193,0.095,311.618,0,311.961,0h1.434V2.368z"/>
	<path fill="#FFFFFF" d="M324.419,7.265h-1.609c-0.803-0.009-1.521,0.166-2.15,0.526c-0.768,0.432-1.149,1.016-1.149,1.753v11.249
		h-2.584V4.613h2.584v2.651c0.207-1.768,1.353-2.651,3.436-2.651h1.476v2.652H324.419z"/>
	<path fill="#FFFFFF" d="M330.653,2.313h-2.583V0h2.583V2.313z M330.653,20.793h-2.583V4.613h2.583V20.793z"/>
	<path fill="#FFFFFF" d="M344.479,16.18c-0.188,1.65-0.689,2.832-1.502,3.543c-0.812,0.713-2.038,1.07-3.679,1.07
		c-0.857,0-1.655-0.227-2.396-0.678c-0.739-0.449-1.308-1.055-1.704-1.812c-0.353-0.666-0.527-1.375-0.527-2.123V9.239
		c0-1.451,0.515-2.602,1.542-3.449c0.956-0.784,2.174-1.177,3.652-1.177c0.856,0,1.651,0.226,2.388,0.677
		c0.734,0.45,1.301,1.06,1.698,1.826c0.352,0.667,0.526,1.375,0.526,2.123v4.613h-7.224v2.326c0,0.723,0.262,1.295,0.784,1.719
		c0.479,0.389,1.087,0.582,1.825,0.582c1.533,0,2.301-0.768,2.301-2.301h2.314V16.18z M341.896,11.539v-2.3
		c0-0.631-0.228-1.174-0.683-1.63c-0.456-0.455-0.999-0.683-1.631-0.683c-0.641,0-1.188,0.228-1.645,0.683
		c-0.455,0.456-0.683,0.999-0.683,1.63v2.3H341.896z"/>
	<path fill="#FFFFFF" d="M358.304,20.793h-2.598V9.239c0-0.622-0.229-1.163-0.684-1.623c-0.456-0.46-0.999-0.689-1.631-0.689
		c-0.622,0-1.163,0.229-1.623,0.689c-0.46,0.46-0.688,1.001-0.688,1.623v11.554h-2.584V4.613h2.584v2.313
		c0.18-1.543,1.271-2.313,3.272-2.313c1.569,0,2.7,0.708,3.396,2.124c0.369,0.73,0.555,1.564,0.555,2.502V20.793z"/>
	<path fill="#FFFFFF" d="M372.047,20.793h-2.584v-2.314c-0.182,1.543-1.271,2.314-3.273,2.314c-1.568,0-2.701-0.703-3.396-2.109
		c-0.36-0.729-0.541-1.562-0.541-2.502V9.247c0-2.343,1.127-3.78,3.382-4.312c0.875-0.207,2.15-0.311,3.828-0.311V0h2.584V20.793z
		 M369.463,16.18V6.927h-2.313c-0.631,0-1.174,0.228-1.63,0.683c-0.455,0.456-0.683,0.999-0.683,1.63v6.94
		c0,0.631,0.228,1.172,0.683,1.623c0.456,0.451,0.999,0.676,1.63,0.676c0.633,0,1.176-0.225,1.632-0.676
		C369.234,17.352,369.463,16.811,369.463,16.18z"/>
	<path fill="#FFFFFF" d="M378.837,20.793h-2.583V0h2.583V20.793z"/>
	<path fill="#FFFFFF" d="M385.628,2.313h-2.583V0h2.583V2.313z M385.628,20.793h-2.583V4.613h2.583V20.793z"/>
	<path fill="#FFFFFF" d="M399.562,20.793h-2.598V9.239c0-0.622-0.229-1.163-0.684-1.623c-0.455-0.46-0.998-0.689-1.631-0.689
		c-0.622,0-1.163,0.229-1.623,0.689c-0.46,0.46-0.688,1.001-0.688,1.623v11.554h-2.584V4.613h2.584v2.313
		c0.18-1.543,1.271-2.313,3.272-2.313c1.569,0,2.7,0.708,3.396,2.124c0.369,0.73,0.555,1.564,0.555,2.502V20.793z"/>
	<path fill="#FFFFFF" d="M413.398,16.18c-0.188,1.65-0.689,2.832-1.502,3.543c-0.812,0.713-2.038,1.07-3.679,1.07
		c-0.857,0-1.655-0.227-2.396-0.678c-0.739-0.449-1.308-1.055-1.704-1.812c-0.353-0.666-0.527-1.375-0.527-2.123V9.239
		c0-1.451,0.515-2.602,1.542-3.449c0.956-0.784,2.174-1.177,3.651-1.177c0.857,0,1.652,0.226,2.389,0.677
		c0.734,0.45,1.301,1.06,1.697,1.826c0.353,0.667,0.527,1.375,0.527,2.123v4.613h-7.224v2.326c0,0.723,0.262,1.295,0.784,1.719
		c0.479,0.389,1.087,0.582,1.825,0.582c1.533,0,2.301-0.768,2.301-2.301h2.314V16.18z M410.814,11.539v-2.3
		c0-0.631-0.228-1.174-0.683-1.63c-0.456-0.455-0.999-0.683-1.632-0.683c-0.64,0-1.188,0.228-1.644,0.683
		c-0.455,0.456-0.683,0.999-0.683,1.63v2.3H410.814z"/>
	<path fill="#FFFFFF" d="M426.845,16.152c0,1.369-0.473,2.486-1.414,3.348c-0.942,0.861-2.107,1.293-3.496,1.293
		c-3.076,0-4.613-1.539-4.613-4.613h2.313c0.18,1.533,0.9,2.299,2.164,2.299c1.649,0,2.476-0.643,2.476-1.932
		c0-0.516-0.442-1.045-1.326-1.596c-0.92-0.514-1.839-1.031-2.759-1.555c-1.137-0.684-1.917-1.387-2.341-2.107
		c-0.353-0.612-0.527-1.288-0.527-2.027c0-1.369,0.479-2.495,1.435-3.378c0.929-0.847,2.084-1.271,3.463-1.271
		c2.896,0,4.438,1.542,4.627,4.626h-2.3c-0.198-1.542-0.93-2.312-2.191-2.312c-1.642,0-2.462,0.64-2.462,1.921
		c0,0.514,0.441,1.046,1.325,1.596c0.92,0.515,1.84,1.029,2.76,1.542c1.137,0.693,1.916,1.406,2.341,2.139
		C426.669,14.729,426.845,15.402,426.845,16.152z"/>
	<path fill="#FFFFFF" d="M440.357,16.152c0,1.369-0.472,2.486-1.414,3.348c-0.941,0.861-2.106,1.293-3.496,1.293
		c-3.076,0-4.612-1.539-4.612-4.613h2.312c0.18,1.533,0.901,2.299,2.164,2.299c1.65,0,2.476-0.643,2.476-1.932
		c0-0.516-0.441-1.045-1.325-1.596c-0.921-0.514-1.84-1.031-2.76-1.555c-1.137-0.684-1.917-1.387-2.341-2.107
		c-0.352-0.612-0.526-1.288-0.526-2.027c0-1.369,0.478-2.495,1.434-3.378c0.929-0.847,2.084-1.271,3.463-1.271
		c2.896,0,4.438,1.542,4.627,4.626h-2.3c-0.198-1.542-0.929-2.312-2.191-2.312c-1.642,0-2.462,0.64-2.462,1.921
		c0,0.514,0.441,1.046,1.325,1.596c0.92,0.515,1.84,1.029,2.76,1.542c1.138,0.693,1.916,1.406,2.342,2.139
		C440.183,14.729,440.357,15.402,440.357,16.152z"/>
	<path fill="#FFFFFF" d="M258.419,7.265h-1.609c-0.803-0.009-1.521,0.166-2.15,0.526c-0.768,0.432-1.149,1.016-1.149,1.753v11.249
		h-2.584V4.613h2.584v2.651c0.207-1.768,1.353-2.651,3.436-2.651h1.476v2.652H258.419z"/>
</g>
</svg>
