<?xml version="1.0" encoding="utf-8"?>
<!-- Generator: Adobe Illustrator 16.0.0, SVG Export Plug-In . SVG Version: 6.00 Build 0)  -->
<!DOCTYPE svg PUBLIC "-//W3C//DTD SVG 1.1//EN" "http://www.w3.org/Graphics/SVG/1.1/DTD/svg11.dtd">
<svg version="1.1" id="Layer_1" xmlns="http://www.w3.org/2000/svg" xmlns:xlink="http://www.w3.org/1999/xlink" x="0px" y="0px"
	 width="669.202px" height="147.074px" viewBox="0 0 669.202 147.074" enable-background="new 0 0 669.202 147.074"
	 xml:space="preserve">
<g>
	<path fill="#FFFFFF" d="M171.563,69.217c1.463,0,2.7-1.197,2.7-2.614V9.268h20.893c8.741,0,12.288,5.645,13.618,8.992
		c1.521,3.958,1.521,8.683,0.007,12.621c-1.337,3.366-4.884,9.01-13.625,9.01H183.57c-1.514,0-2.7,1.148-2.7,2.614v24.098
		c0,1.465,1.186,2.614,2.7,2.614c1.442,0,2.615-1.173,2.615-2.614V45.289h8.971c8.531,0,15.489-4.601,18.63-12.352
		c1.987-5.33,1.987-11.396-0.015-16.668c-3.083-7.713-10.042-12.316-18.615-12.316h-23.593c-1.418,0-2.615,1.237-2.615,2.701v59.948
		C168.948,68.044,170.122,69.217,171.563,69.217z"/>
	<path fill="#FFFFFF" d="M194.15,27.968h-10.666c-1.441,0-2.614,1.173-2.614,2.615c0,1.441,1.173,2.614,2.614,2.614h10.666
		c3.697,0,6.621-1.872,8.02-5.139c0.933-2.179,0.933-4.779,0-6.959c-1.399-3.267-4.323-5.139-8.02-5.139h-10.58
		c-1.514,0-2.7,1.149-2.7,2.615c0,1.514,1.186,2.698,2.7,2.698h10.58c2.113,0,2.901,1.331,3.117,1.839
		c0.354,0.947,0.359,2.029,0.003,2.92C196.802,27.263,195.665,27.968,194.15,27.968z"/>
	<path fill="#FFFFFF" d="M285.759,46.65c0.458-1.373-0.338-2.931-1.812-3.421c-1.478-0.424-2.939,0.396-3.336,1.787
		c-3.781,11.898-14.842,19.893-27.521,19.893c-16.751,0-28.45-11.698-28.45-28.449c0-16.702,11.699-28.365,28.45-28.365
		c12.669,0,23.73,7.962,27.507,19.764c0.406,1.421,1.815,2.223,3.271,1.855c0.662-0.144,1.248-0.572,1.62-1.191
		c0.412-0.686,0.514-1.526,0.278-2.235c-4.455-13.89-17.892-23.592-32.676-23.592c-19.565,0-33.766,14.2-33.766,33.765
		c0,19.614,14.201,33.85,33.766,33.85C267.913,70.31,281.351,60.57,285.759,46.65z"/>
	<path fill="#FFFFFF" d="M253.089,52.484c-5.615,0-10.807-3.075-13.577-8.078c-0.686-1.144-2.386-1.601-3.635-0.981l-0.117,0.064
		c-0.582,0.35-1.015,0.951-1.189,1.651c-0.174,0.699-0.074,1.434,0.255,1.98c3.781,6.638,10.779,10.763,18.263,10.763
		c11.627,0,21.087-9.61,21.087-21.424c0-11.767-9.46-21.34-21.087-21.34c-7.514,0-14.512,4.092-18.307,10.76
		c-0.593,1.188-0.26,2.663,0.792,3.505l0.306,0.195c0.384,0.19,0.816,0.291,1.25,0.291c1.053,0,1.989-0.563,2.411-1.407
		c2.741-4.951,7.933-8.027,13.548-8.027c8.65,0,15.688,7.188,15.688,16.023S261.739,52.484,253.089,52.484z"/>
	<path fill="#FFFFFF" d="M296.497,3.953c-1.515,0-2.702,1.149-2.702,2.616v60.033c0,1.465,1.188,2.614,2.702,2.614
		c1.441,0,2.613-1.173,2.613-2.614V6.569C299.11,5.127,297.938,3.953,296.497,3.953z"/>
	<path fill="#FFFFFF" d="M308.502,69.217c1.442,0,2.616-1.173,2.616-2.614V6.569c0-1.442-1.174-2.616-2.616-2.616
		c-1.514,0-2.699,1.149-2.699,2.616v60.033C305.803,68.067,306.988,69.217,308.502,69.217z"/>
	<path fill="#FFFFFF" d="M341.952,28.192c-1.734-0.712-3.371-1.384-4.024-1.878c-0.742-0.584-1.203-1.425-1.203-2.248
		c-0.069-2.287,2.238-2.841,3.189-2.968c4.136-0.441,9.718,1.646,11.162,2.224c0.351,0.149,0.713,0.226,1.077,0.226
		c1.233,0,2.314-0.904,2.569-2.151c0.258-1.254-0.369-2.438-1.579-2.956c-4.502-1.863-8.155-2.694-11.848-2.694
		c-0.524,0-1.052,0.017-1.551,0.048c-2.32,0.101-4.448,1.008-5.992,2.551c-1.611,1.611-2.443,3.777-2.339,6.136
		c0.354,5.375,4.651,7.089,9.2,8.903c3.337,1.332,7.118,2.841,10.486,6.002c3.483,3.196,4.292,6.969,4.357,9.569
		c0.101,3.981-1.489,8.03-4.242,10.823c-3.818,3.82-9.098,4.621-12.854,4.621c-5.129,0-10.923-1.488-15.921-4.096
		c-0.4-0.201-0.821-0.303-1.249-0.303c-1.232,0-2.308,0.853-2.614,2.073c-0.294,1.168,0.228,2.338,1.341,2.934
		c3.254,1.631,6.605,2.835,9.939,3.577c2.853,0.676,5.68,1.016,8.402,1.016c13.654,0,22.478-8.163,22.478-20.799
		C360.738,35.91,348.978,31.079,341.952,28.192z"/>
	<path fill="#FFFFFF" d="M337.615,44.725c1.992,0.797,3.876,1.548,4.59,2.138c0.663,0.607,1.061,1.465,1.062,2.299
		c0.001,0.496-0.14,1.219-0.815,1.84c-0.945,0.869-2.552,1.328-4.645,1.328c-4.706,0-10.498-2.272-13.59-4.432
		c-0.443-0.297-0.951-0.451-1.468-0.451c-1.162,0-2.22,0.789-2.572,1.921c-0.343,1.101,0.068,2.249,1.009,2.897
		c4.615,3.39,10.769,5.332,16.88,5.332c0.577,0,1.143-0.017,1.693-0.053c4.583-0.293,9.129-3.653,8.801-8.768
		c-0.362-5.56-4.803-7.295-9.504-9.134c-3.198-1.252-6.822-2.668-10.031-5.451c-3.42-3.063-4.281-6.774-4.4-9.35
		c-0.189-4.079,1.31-8.251,4.015-11.167c2.952-3.213,6.854-4.776,11.928-4.776c3.535,0,7.631,0.795,12.173,2.359
		c0.324,0.13,0.657,0.196,0.992,0.196c1.251,0,2.32-0.934,2.543-2.223c0.221-1.279-0.478-2.477-1.721-2.92
		c-3.572-1.217-6.721-2.01-9.636-2.427c-1.383-0.188-2.76-0.284-4.095-0.284c-12.661,0-21.503,8.609-21.503,20.936
		C319.32,37.425,330.772,41.995,337.615,44.725z"/>
	<path fill="#FFFFFF" d="M399.095,52.484c-5.615,0-10.808-3.075-13.579-8.08c-0.687-1.141-2.382-1.601-3.632-0.98l-0.119,0.065
		c-0.582,0.35-1.016,0.953-1.19,1.652c-0.174,0.701-0.072,1.436,0.256,1.979c3.782,6.638,10.78,10.763,18.265,10.763
		c11.627,0,21.086-9.61,21.086-21.424c0-11.767-9.459-21.34-21.086-21.34c-7.514,0-14.512,4.092-18.307,10.758
		c-0.595,1.189-0.262,2.664,0.791,3.507l0.308,0.196c0.384,0.189,0.816,0.29,1.249,0.29c1.052,0,1.986-0.562,2.41-1.407
		c2.741-4.951,7.933-8.027,13.549-8.027c8.65,0,15.687,7.188,15.687,16.023S407.745,52.484,399.095,52.484z"/>
	<path fill="#FFFFFF" d="M431.763,46.653c0.221-0.656,0.165-1.37-0.154-2.011c-0.326-0.657-0.905-1.165-1.657-1.413
		c-1.479-0.424-2.936,0.393-3.336,1.787c-3.78,11.898-14.84,19.893-27.521,19.893c-16.752,0-28.451-11.698-28.451-28.449
		c0-16.702,11.699-28.365,28.451-28.365c12.671,0,23.731,7.962,27.507,19.767c0.41,1.419,1.817,2.22,3.269,1.853
		c0.663-0.144,1.252-0.573,1.624-1.193c0.411-0.687,0.512-1.529,0.276-2.233c-4.456-13.89-17.892-23.592-32.676-23.592
		c-19.566,0-33.768,14.2-33.768,33.765c0,19.614,14.201,33.85,33.768,33.85C413.918,70.31,427.355,60.57,431.763,46.653z"/>
	<path fill="#FFFFFF" d="M442.458,69.237c1.491,0,2.658-1.157,2.658-2.635V6.654c0-1.515-1.167-2.701-2.658-2.701
		c-1.49,0-2.658,1.187-2.658,2.701v59.948C439.8,68.08,440.968,69.237,442.458,69.237z"/>
	<path fill="#FFFFFF" d="M491.364,69.237c1.515,0,2.7-1.157,2.7-2.635V6.654c0-1.515-1.186-2.701-2.7-2.701
		c-1.514,0-2.698,1.187-2.698,2.701v59.948C488.666,68.08,489.851,69.237,491.364,69.237z"/>
	<path fill="#FFFFFF" d="M457.206,37.752l21.099,30.403l0.091,0.121c0.542,0.647,1.286,1.004,2.096,1.004
		c0.994,0,1.915-0.541,2.402-1.415c0.479-0.856,0.449-1.879-0.133-2.819l-26.027-37.361l-0.123-0.157
		c-0.542-0.608-1.308-0.959-2.104-0.959c-1.514,0-2.7,1.173-2.7,2.671v37.363c0,1.478,1.186,2.635,2.7,2.635
		c1.514,0,2.699-1.157,2.699-2.635V37.752z"/>
	<path fill="#FFFFFF" d="M477.189,45.45c0.475,0.746,1.281,1.19,2.173,1.19c1.533,0,2.78-1.215,2.78-2.709V6.654
		c0-1.515-1.186-2.701-2.698-2.701c-1.516,0-2.7,1.187-2.7,2.701v28.808L455.527,5.179c-0.486-0.789-1.273-1.241-2.162-1.241
		c-1.005,0-1.949,0.593-2.407,1.51c-0.445,0.894-0.346,1.914,0.231,2.677L477.189,45.45z"/>
	<path fill="#FFFFFF" d="M219.59,101.609c-0.903,0-1.751,0.483-2.228,1.233l-15.655,22.366l-15.711-22.518
		c-0.527-0.677-1.319-1.065-2.173-1.065c-1.515,0-2.701,1.184-2.701,2.692v37.951c0,1.442,1.172,2.616,2.614,2.616
		c1.562,0,2.785-1.149,2.785-2.616v-29.418l12.868,18.625l0.689,0.722l0.29,0.123c1.335,0.572,2.82,0.194,3.504-0.873l13.017-18.644
		v29.465c0,1.467,1.186,2.616,2.7,2.616c1.443,0,2.616-1.174,2.616-2.616v-37.951C222.205,102.8,221.057,101.609,219.59,101.609z"/>
	<path fill="#FFFFFF" d="M231.68,78.697c-1.442,0-2.616,1.174-2.616,2.616v60.956c0,1.442,1.173,2.616,2.616,2.616
		c1.514,0,2.699-1.149,2.699-2.616V81.313C234.379,79.847,233.193,78.697,231.68,78.697z"/>
	<path fill="#FFFFFF" d="M222.239,79.169c-0.446-0.326-0.993-0.506-1.552-0.506c-0.923,0-1.752,0.477-2.202,1.253l-16.783,24.054
		l-16.894-24.101c-0.819-1.226-2.562-1.552-3.719-0.7c-0.58,0.387-0.982,1.008-1.111,1.725c-0.133,0.741,0.051,1.493,0.439,1.973
		l18.975,27.29l0.61,0.642l0.191,0.109c0.461,0.264,0.97,0.403,1.473,0.403c0.911,0,1.73-0.443,2.207-1.187l19.036-27.254
		l0.066-0.104C223.705,81.541,223.364,79.923,222.239,79.169z"/>
	<path fill="#FFFFFF" d="M171.563,78.697c-1.443,0-2.617,1.174-2.617,2.616v60.956c0,1.442,1.173,2.616,2.617,2.616
		c1.534,0,2.783-1.174,2.783-2.616V81.313C174.347,79.871,173.098,78.697,171.563,78.697z"/>
	<path fill="#FFFFFF" d="M258.965,79.704c-1.443,0-2.616,1.174-2.616,2.617v38.033c0,7.305,5.231,12.605,12.439,12.605
		c7.256,0,12.523-5.301,12.523-12.605V82.321c0-1.468-1.187-2.617-2.7-2.617c-1.441,0-2.614,1.174-2.614,2.617v38.033
		c0,4.41-2.897,7.375-7.209,7.375c-4.243,0-7.207-3.032-7.207-7.375V82.321C261.581,80.878,260.407,79.704,258.965,79.704z"/>
	<path fill="#FFFFFF" d="M290.787,79.704c-1.514,0-2.7,1.149-2.7,2.617v38.705c0,11.165-7.936,18.963-19.299,18.963
		c-11.362,0-19.298-7.798-19.298-18.963V82.321c0-1.443-1.173-2.617-2.616-2.617c-1.514,0-2.701,1.149-2.701,2.617v38.705
		c0,14.069,10.352,24.279,24.614,24.279c14.262,0,24.613-10.21,24.613-24.279V82.321C293.401,80.878,292.229,79.704,290.787,79.704z
		"/>
	<path fill="#FFFFFF" d="M319.646,120.391c1.994,0.797,3.877,1.548,4.591,2.138c0.665,0.606,1.062,1.467,1.062,2.3
		c0.001,0.498-0.14,1.22-0.814,1.838c-0.946,0.87-2.553,1.329-4.646,1.329c-4.706,0-10.498-2.272-13.59-4.432
		c-0.443-0.295-0.951-0.451-1.468-0.451c-1.161,0-2.219,0.788-2.572,1.92c-0.344,1.1,0.067,2.248,1.008,2.899
		c4.614,3.389,10.765,5.331,16.876,5.331c0.579,0,1.146-0.018,1.698-0.052c4.583-0.295,9.127-3.655,8.801-8.77
		c-0.362-5.56-4.803-7.296-9.504-9.133c-3.198-1.251-6.823-2.667-10.03-5.449c-3.422-3.063-4.282-6.774-4.401-9.349
		c-0.189-4.078,1.31-8.251,4.015-11.169c2.952-3.213,6.854-4.775,11.926-4.775c3.537,0,7.633,0.795,12.175,2.362
		c0.323,0.129,0.656,0.193,0.989,0.193c1.253,0,2.323-0.936,2.546-2.223c0.222-1.281-0.477-2.479-1.721-2.921
		c-3.582-1.219-6.731-2.013-9.637-2.426c-1.382-0.189-2.761-0.286-4.097-0.286c-12.659,0-21.501,8.61-21.501,20.938
		C301.352,113.091,312.804,117.661,319.646,120.391z"/>
	<path fill="#FFFFFF" d="M323.988,103.861c-1.735-0.713-3.374-1.386-4.031-1.883c-0.74-0.581-1.2-1.421-1.201-2.243
		c-0.066-2.289,2.239-2.843,3.189-2.97c4.126-0.442,9.719,1.646,11.16,2.222c0.352,0.151,0.714,0.229,1.08,0.229
		c1.233-0.001,2.313-0.905,2.569-2.151c0.258-1.254-0.369-2.439-1.579-2.958c-4.502-1.864-8.157-2.694-11.853-2.694
		c-0.523,0-1.049,0.017-1.546,0.047c-2.321,0.102-4.449,1.009-5.993,2.553c-1.61,1.612-2.441,3.777-2.338,6.136
		c0.354,5.375,4.65,7.09,9.201,8.904c3.336,1.331,7.118,2.84,10.486,6.001c3.483,3.196,4.292,6.968,4.356,9.568
		c0.101,3.982-1.488,8.033-4.241,10.826c-3.818,3.817-9.096,4.619-12.852,4.619c-5.13,0-10.925-1.489-15.928-4.099
		c-0.399-0.199-0.817-0.3-1.244-0.3c-1.231,0-2.308,0.852-2.615,2.072c-0.295,1.166,0.226,2.337,1.34,2.937
		c3.261,1.63,6.612,2.834,9.94,3.575c2.854,0.674,5.681,1.016,8.402,1.016c13.654,0,22.477-8.164,22.477-20.8
		C342.77,111.579,331.012,106.749,323.988,103.861z"/>
	<path fill="#FFFFFF" d="M394.058,79.62c-1.442,0-2.617,1.174-2.617,2.617v60.032c0,1.442,1.175,2.616,2.617,2.616
		c1.513,0,2.697-1.149,2.697-2.616V82.237C396.755,80.77,395.57,79.62,394.058,79.62z"/>
	<path fill="#FFFFFF" d="M382.049,115.558h-17.968c-1.488,0-2.7,1.21-2.7,2.697v24.015c0,1.419,1.237,2.616,2.7,2.616
		c1.464,0,2.699-1.197,2.699-2.616v-21.398h12.653v21.398c0,1.442,1.173,2.616,2.615,2.616c1.515,0,2.701-1.149,2.701-2.616v-24.015
		C384.75,116.743,383.563,115.558,382.049,115.558z"/>
	<path fill="#FFFFFF" d="M352.074,79.62c-1.44,0-2.614,1.174-2.614,2.617v60.032c0,1.442,1.174,2.616,2.614,2.616
		c1.515,0,2.701-1.149,2.701-2.616V82.237C354.775,80.77,353.589,79.62,352.074,79.62z"/>
	<path fill="#FFFFFF" d="M382.049,79.62c-1.442,0-2.615,1.174-2.615,2.617v21.312H366.78V82.237c0-1.418-1.235-2.617-2.699-2.617
		c-1.463,0-2.7,1.199-2.7,2.617v24.013c0,1.438,1.263,2.698,2.7,2.698h17.968c1.489,0,2.701-1.211,2.701-2.698V82.237
		C384.75,80.77,383.563,79.62,382.049,79.62z"/>
	<path fill="#FFFFFF" d="M423.587,119.803c-0.828-1.039-2.407-1.324-3.536-0.646l-0.324,0.252c-0.635,0.632-0.936,1.446-0.833,2.199
		v20.662c0,1.464,1.196,2.699,2.614,2.699c1.439,0,2.7-1.262,2.7-2.699V129.4l10.67,14.31c0.504,0.757,1.344,1.209,2.249,1.209
		c0.599,0,1.182-0.203,1.641-0.568c0.563-0.45,0.918-1.087,0.998-1.794c0.077-0.696-0.123-1.383-0.53-1.892L423.587,119.803z"/>
	<path fill="#FFFFFF" d="M432.088,103.634H421.57c-1.513,0-2.698,1.148-2.698,2.616c0,1.466,1.186,2.614,2.698,2.614h10.518
		c4.95,0,8.827-3.768,8.827-8.575c0-4.856-3.877-8.662-8.827-8.662h-10.58c-1.479,0-2.636,1.168-2.636,2.657
		c0,1.49,1.157,2.658,2.636,2.658h10.58c2.003,0,3.514,1.438,3.514,3.347C435.602,102.164,434.058,103.634,432.088,103.634z"/>
	<path fill="#FFFFFF" d="M438.148,120.343c8.858-2.292,15.445-10.592,15.445-20.054c0-11.442-9.195-20.753-20.498-20.753h-23.595
		c-1.417,0-2.613,1.236-2.613,2.701v60.032c0,1.464,1.196,2.699,2.613,2.699c1.489,0,2.7-1.211,2.7-2.699V84.937h20.895
		c8.326,0,15.1,6.888,15.1,15.353c0,8.418-6.773,15.269-15.1,15.269c-1.466,0-2.615,1.186-2.615,2.697
		c0,0.665,0.236,1.301,0.65,1.767l18.464,23.835c0.984,1.178,2.7,1.354,3.779,0.414c0.511-0.371,0.861-0.929,0.976-1.562
		c0.132-0.733-0.063-1.493-0.52-2.062L438.148,120.343z"/>
	<path fill="#FFFFFF" d="M521.47,105.38c0.66-0.143,1.246-0.571,1.619-1.189c0.414-0.686,0.517-1.527,0.28-2.236
		c-4.455-13.891-17.893-23.593-32.679-23.593c-19.565,0-33.766,14.201-33.766,33.766c0,19.612,14.2,33.849,33.766,33.849
		c14.823,0,28.263-9.738,32.673-23.659c0.457-1.375-0.342-2.932-1.813-3.421c-1.478-0.425-2.941,0.396-3.336,1.788
		c-3.782,11.898-14.843,19.894-27.523,19.894c-16.75,0-28.449-11.699-28.449-28.45c0-16.701,11.699-28.366,28.449-28.366
		c12.67,0,23.732,7.962,27.509,19.762C518.604,104.944,520.009,105.747,521.47,105.38z"/>
	<path fill="#FFFFFF" d="M490.69,128.151c-5.615,0-10.807-3.076-13.578-8.081c-0.475-0.786-1.378-1.274-2.36-1.274
		c-0.445,0-0.886,0.104-1.274,0.297l-0.109,0.061c-0.586,0.35-1.021,0.951-1.196,1.652s-0.073,1.437,0.256,1.982
		c3.783,6.639,10.78,10.763,18.263,10.763c11.628,0,21.088-9.61,21.088-21.424c0-11.768-9.46-21.341-21.088-21.341
		c-7.513,0-14.51,4.092-18.304,10.756c-0.6,1.19-0.265,2.667,0.792,3.511l0.299,0.191c0.385,0.192,0.819,0.294,1.256,0.294
		c1.05,0,1.985-0.562,2.409-1.408c2.741-4.952,7.934-8.028,13.548-8.028c8.65,0,15.688,7.188,15.688,16.025
		C506.378,120.963,499.341,128.151,490.69,128.151z"/>
	<path fill="#FFFFFF" d="M563.064,128.151c-5.614,0-10.807-3.076-13.579-8.081c-0.688-1.143-2.386-1.602-3.635-0.977l-0.108,0.06
		c-0.583,0.349-1.019,0.949-1.194,1.647c-0.177,0.7-0.077,1.436,0.253,1.987c3.78,6.639,10.778,10.763,18.264,10.763
		c11.628,0,21.088-9.61,21.088-21.424c0-11.768-9.46-21.341-21.088-21.341c-7.515,0-14.513,4.093-18.306,10.761
		c-0.595,1.189-0.26,2.663,0.795,3.506l0.297,0.19c0.387,0.193,0.82,0.295,1.256,0.295c1.05,0,1.985-0.562,2.409-1.408
		c2.743-4.952,7.935-8.028,13.549-8.028c8.649,0,15.687,7.188,15.687,16.025C578.751,120.963,571.714,128.151,563.064,128.151z"/>
	<path fill="#FFFFFF" d="M593.843,105.38c0.661-0.143,1.247-0.571,1.619-1.189c0.414-0.686,0.517-1.527,0.281-2.236
		c-4.456-13.891-17.894-23.593-32.679-23.593c-19.564,0-33.766,14.201-33.766,33.766c0,19.612,14.201,33.849,33.766,33.849
		c14.823,0,28.262-9.738,32.673-23.659c0.456-1.373-0.342-2.93-1.814-3.421c-1.482-0.425-2.941,0.396-3.336,1.788
		c-3.783,11.898-14.843,19.894-27.522,19.894c-16.752,0-28.45-11.699-28.45-28.45c0-16.701,11.698-28.366,28.45-28.366
		c12.669,0,23.731,7.962,27.509,19.762C590.977,104.944,592.38,105.754,593.843,105.38z"/>
	<path fill="#FFFFFF" d="M657.063,79.17c-0.447-0.327-0.994-0.507-1.553-0.507c-0.924,0-1.753,0.477-2.202,1.253l-16.783,24.054
		l-16.894-24.101c-0.819-1.226-2.563-1.546-3.72-0.7c-0.579,0.387-0.981,1.009-1.111,1.725c-0.134,0.741,0.052,1.493,0.438,1.973
		l19.069,27.423l0.708,0.619c0.461,0.263,0.97,0.402,1.471,0.402c0.934,0,1.771-0.465,2.184-1.152l19.059-27.289l0.063-0.098
		C658.528,81.546,658.189,79.926,657.063,79.17z"/>
	<path fill="#FFFFFF" d="M666.504,78.697c-1.442,0-2.616,1.174-2.616,2.616v60.956c0,1.442,1.174,2.616,2.616,2.616
		c1.513,0,2.698-1.149,2.698-2.616V81.313C669.202,79.847,668.017,78.697,666.504,78.697z"/>
	<path fill="#FFFFFF" d="M654.412,101.609c-0.904,0-1.753,0.486-2.224,1.233l-15.657,22.368l-15.712-22.52
		c-0.526-0.678-1.318-1.065-2.173-1.065c-1.515,0-2.702,1.184-2.702,2.692v37.951c0,1.442,1.173,2.616,2.616,2.616
		c1.562,0,2.784-1.149,2.784-2.616v-29.419l12.868,18.626l0.688,0.722l0.291,0.124c1.356,0.58,2.899,0.134,3.479-0.84l13.041-18.678
		v29.465c0,1.467,1.187,2.616,2.7,2.616c1.442,0,2.615-1.174,2.615-2.616v-37.951C657.027,102.8,655.879,101.609,654.412,101.609z"
		/>
	<path fill="#FFFFFF" d="M606.387,78.697c-1.442,0-2.616,1.174-2.616,2.616v60.956c0,1.442,1.174,2.616,2.616,2.616
		c1.534,0,2.782-1.174,2.782-2.616V81.313C609.169,79.871,607.921,78.697,606.387,78.697z"/>
	<g>
		<path fill="#FFFFFF" d="M127.805,30.419C113.272,9.666,95.765,0,72.71,0C49.655,0,32.148,9.666,17.616,30.419
			C-0.401,56.147-4.772,79.847,5.309,97.149c8.098,13.898,22.629,16.94,32.755,17.196c-1.376,5.012-2.95,13.605-0.144,20.444
			c2.58,6.289,8.577,9.378,15.861,10.884c0.522,0.252,1.101,0.406,1.72,0.406c0.106,0,0.207-0.022,0.312-0.031
			c5.334,0.875,11.219,1.025,16.897,1.025c5.677,0,11.563-0.15,16.897-1.025c0.104,0.009,0.205,0.031,0.312,0.031
			c0.619,0,1.198-0.154,1.721-0.406c7.284-1.506,13.281-4.595,15.86-10.884c2.806-6.839,1.232-15.432-0.145-20.442
			c10.126-0.257,24.658-3.301,32.756-17.199C150.193,79.847,145.822,56.147,127.805,30.419z M134.96,94.146
			c-10.85,18.623-37.305,13.599-37.572,13.545c-1.608-0.322-3.183,0.72-3.508,2.333c-0.326,1.614,0.719,3.187,2.333,3.512
			c0.29,0.06,2.112,0.408,4.883,0.634c1.396,4.369,3.203,12.715,0.889,18.357c-0.999,2.435-2.896,4.769-8.09,6.388v-11.053
			c0-2.195-1.78-3.975-3.975-3.975s-3.975,1.779-3.975,3.975v12.607c-2.626,0.304-5.681,0.51-9.259,0.596v-15.961
			c0-2.195-1.78-3.976-3.975-3.976c-2.195,0-3.975,1.78-3.975,3.976v15.971c-3.219-0.064-6.351-0.223-9.259-0.557v-12.656
			c0-2.195-1.78-3.975-3.975-3.975c-2.195,0-3.975,1.779-3.975,3.975v11.045c-3.911-1.283-6.819-3.283-8.09-6.38
			c-2.486-6.061-0.266-14.677,0.901-18.356c2.769-0.227,4.581-0.575,4.872-0.635c1.614-0.325,2.658-1.897,2.333-3.512
			c-0.326-1.615-1.901-2.665-3.512-2.332c-0.218,0.043-18.035,3.465-30.439-5.623c0.204-0.979,0.315-1.988,0.315-3.026
			c0-6.929-4.728-12.731-11.129-14.411C4.21,72.896,7.932,60.31,13.09,49.692c1.527,0.468,3.146,0.724,4.826,0.724
			c9.18,0,16.621-7.441,16.621-16.621c0-3.888-1.355-7.444-3.593-10.271C40.317,13.847,50.994,8.311,63.61,6.57
			c-0.88,2.699-1.365,5.575-1.365,8.567c0,15.285,12.39,27.674,27.673,27.674c11.838,0,21.913-7.447,25.865-17.901
			c2.465,2.681,4.841,5.65,7.136,8.928C132.538,47.573,146.891,73.67,134.96,94.146z"/>
		<circle fill="#FFFFFF" cx="46.353" cy="78.748" r="14.466"/>
		<circle fill="#FFFFFF" cx="99.067" cy="78.748" r="14.466"/>
		<path fill="#FFFFFF" d="M72.779,93.518h-0.138c-3.131,0-7.872,8.417-7.222,13.181c0.599,4.397,4.347,4.767,7.291,4.767
			s6.691-0.369,7.291-4.767C80.65,101.935,75.91,93.518,72.779,93.518z"/>
	</g>
</g>
</svg>
