<?xml version="1.0" encoding="utf-8"?>
<!-- Generator: Adobe Illustrator 16.0.0, SVG Export Plug-In . SVG Version: 6.00 Build 0)  -->
<!DOCTYPE svg PUBLIC "-//W3C//DTD SVG 1.1//EN" "http://www.w3.org/Graphics/SVG/1.1/DTD/svg11.dtd">
<svg version="1.1" id="Layer_1" xmlns="http://www.w3.org/2000/svg" xmlns:xlink="http://www.w3.org/1999/xlink" x="0px" y="0px"
	 width="23.941px" height="22.94px" viewBox="0 0 23.941 22.94" enable-background="new 0 0 23.941 22.94" xml:space="preserve">
<g>
	<path d="M23.318,22.319c-0.673,0.672-1.613,0.823-2.101,0.336L1.287,2.723C0.8,2.237,0.95,1.296,1.623,0.624l0,0
		C2.296-0.05,3.237-0.201,3.724,0.286l19.931,19.932C24.143,20.705,23.991,21.645,23.318,22.319L23.318,22.319z"/>
	<path d="M0.622,22.318c-0.672-0.673-0.823-1.613-0.336-2.101L20.217,0.286c0.486-0.487,1.428-0.336,2.1,0.336l0,0
		c0.674,0.673,0.825,1.615,0.338,2.102L2.723,22.655C2.236,23.142,1.295,22.991,0.622,22.318L0.622,22.318z"/>
</g>
</svg>
