<?xml version="1.0" encoding="utf-8"?>
<!-- Generator: Adobe Illustrator 16.0.0, SVG Export Plug-In . SVG Version: 6.00 Build 0)  -->
<!DOCTYPE svg PUBLIC "-//W3C//DTD SVG 1.1//EN" "http://www.w3.org/Graphics/SVG/1.1/DTD/svg11.dtd">
<svg version="1.1" id="Layer_1" xmlns="http://www.w3.org/2000/svg" xmlns:xlink="http://www.w3.org/1999/xlink" x="0px" y="0px"
	 width="145.42px" height="147.073px" viewBox="0 0 145.42 147.073" enable-background="new 0 0 145.42 147.073"
	 xml:space="preserve">
<g>
	<g>
		<path d="M127.805,30.419C113.272,9.666,95.765,0,72.71,0S32.148,9.666,17.616,30.419C-0.401,56.147-4.772,79.848,5.309,97.148
			c8.098,13.898,22.629,16.94,32.755,17.196c-1.376,5.013-2.95,13.605-0.144,20.444c2.58,6.289,8.577,9.378,15.861,10.884
			c0.522,0.252,1.101,0.406,1.72,0.406c0.106,0,0.207-0.022,0.312-0.031c5.334,0.875,11.219,1.025,16.897,1.025
			c5.677,0,11.563-0.15,16.897-1.025c0.104,0.009,0.205,0.031,0.312,0.031c0.619,0,1.198-0.154,1.721-0.406
			c7.284-1.506,13.281-4.595,15.86-10.884c2.806-6.839,1.232-15.432-0.145-20.441c10.126-0.258,24.658-3.302,32.756-17.199
			C150.193,79.848,145.822,56.147,127.805,30.419z M134.96,94.146c-10.85,18.623-37.305,13.599-37.572,13.545
			c-1.608-0.322-3.183,0.72-3.508,2.332c-0.326,1.615,0.719,3.188,2.333,3.513c0.29,0.06,2.112,0.407,4.883,0.634
			c1.396,4.369,3.203,12.715,0.889,18.357c-0.999,2.435-2.896,4.769-8.09,6.388v-11.054c0-2.194-1.78-3.975-3.975-3.975
			c-2.195,0-3.975,1.779-3.975,3.975v12.607c-2.626,0.305-5.681,0.51-9.259,0.596v-15.961c0-2.194-1.78-3.976-3.975-3.976
			c-2.195,0-3.975,1.78-3.975,3.976v15.972c-3.219-0.064-6.351-0.224-9.259-0.558v-12.656c0-2.194-1.78-3.975-3.975-3.975
			s-3.975,1.779-3.975,3.975v11.046c-3.911-1.283-6.819-3.283-8.09-6.38c-2.486-6.062-0.266-14.678,0.901-18.356
			c2.769-0.228,4.581-0.575,4.872-0.635c1.614-0.325,2.658-1.897,2.333-3.513c-0.326-1.614-1.901-2.664-3.512-2.332
			c-0.218,0.043-18.035,3.466-30.439-5.623c0.204-0.979,0.315-1.987,0.315-3.025c0-6.929-4.728-12.73-11.129-14.411
			C4.21,72.896,7.932,60.31,13.09,49.692c1.527,0.468,3.146,0.724,4.826,0.724c9.18,0,16.621-7.441,16.621-16.621
			c0-3.888-1.355-7.444-3.593-10.271C40.317,13.847,50.994,8.311,63.61,6.57c-0.88,2.699-1.365,5.575-1.365,8.567
			c0,15.285,12.39,27.674,27.673,27.674c11.838,0,21.913-7.447,25.865-17.901c2.465,2.681,4.841,5.65,7.136,8.928
			C132.538,47.573,146.891,73.67,134.96,94.146z"/>
		<circle cx="46.353" cy="78.748" r="14.466"/>
		<circle cx="99.067" cy="78.748" r="14.466"/>
		<path d="M72.779,93.518h-0.138c-3.131,0-7.872,8.418-7.222,13.182c0.599,4.396,4.347,4.767,7.291,4.767s6.691-0.368,7.291-4.767
			C80.65,101.936,75.91,93.518,72.779,93.518z"/>
	</g>
</g>
</svg>
